<svg id="レイヤー_1" data-name="レイヤー 1" xmlns="http://www.w3.org/2000/svg" viewBox="0 0 349.56 373.61"><defs><style>.cls-1{font-size:100px;font-family:EdwardianScriptITC, Edwardian Script ITC;}.cls-2{font-size:317.52px;font-family:MonotypeCorsiva, Monotype Corsiva;}</style></defs><text class="cls-1" transform="translate(0 340.8)">Pudu Age</text><path d="M521.37,383.62c1.41.43,2,1.45,1.38,1.84s-.27,3.83,4.56,4.73,3.19,2.08,3,3.49,8.83,3,13.88,2.88a27,27,0,0,1,11.48,1.83c3,1.27,12.26,2.86,14.1,1.68a2.72,2.72,0,0,0,1.07-3.21s1.82-.37,5.23.91,8.42,3.18,10.86,2.22-.34-3,1.27-3,15.7,2.72,18.36,1,3.3-3.58,5.72-3.33,10.67,1.41,11.12-1.21,5.3-2.52,7.74-3.08,4.08-2.55,3.52-4.78-1.35-3.66,1.1-4.63,3.06-2.16,1.7-4.81,1.87-2.79,3.51-4.18.27-3.63-1.49-6.48-15.09-24.72-17.43-29-.34-3.44.69-4.42-.17-2-3.34-4.91-7.24-12.46-6.41-13.86,2.08-3,.49-4.43a28.8,28.8,0,0,1-8.08-10.65C603,292.46,601,283.54,595.8,280s-.85-8.3-.85-8.3a13.06,13.06,0,0,0,2.63-.55c1.83-.57.94-6.85,1.42-11.08.56-4.85,3.85-11.24-1-19.2a77.43,77.43,0,0,1-4.72-8.95,8.25,8.25,0,0,0,.57-.88,2.53,2.53,0,0,1,0,.85.72.72,0,0,0,.46,1c-.38-.3-.13-.92.12-1.3a1.69,1.69,0,0,0,.22-1.11,1.46,1.46,0,0,1,.06-.59,1.36,1.36,0,0,0,.86.21.59.59,0,0,1,.07-1.11c.73-.27.6-.81.6-.81s.23.63.61.55a.82.82,0,0,1,0-1c.33.44,1,1.08,1.84-.21-.84,1.1-1.68-.37-.76-.64a1.5,1.5,0,0,0,1.2-2,1.72,1.72,0,0,0-.34-2.66c.29.05,1,0,.89-.86-.3.53-1.5.22-1-1.13a2,2,0,0,0-.35-2.08c1-1.82.55-3.61-.61-3.88.18-1.54-1.06-2.67-2.16-3.27-1.07-1.91-4.84-1.73-5.35-.63a2,2,0,0,0-2.25,1.45,2.62,2.62,0,0,0-2.45,2.27,6.36,6.36,0,0,0-4.09,1.28c-4.07.55-6.55,3.06-7.21,7.35-.31,1.2.34,2.43.28,3.44s-1.34,1.66-.44,2.65,1,1.61.35,2.08a1.17,1.17,0,0,0,.3,2,1,1,0,0,1,.35,1.74c-.58.33-.12,1.31.51,1.41-.38-.49-.71-.78.07-1.35a1.36,1.36,0,0,0,0-2.12c-.57-.64-1-.75-.26-1.7.45-.57,1.09-1.48.19-2.32s-.8-1.07.09-2.12.8-1.67.52-2.31a1.57,1.57,0,0,1,.3-2,22.91,22.91,0,0,0,.14,3.71,16.39,16.39,0,0,1,.71,2s-.33.63-.86.3a.76.76,0,0,0,1.18-.15,1.58,1.58,0,0,0,.44.89c0,.15-.29.21-.29.49a1.89,1.89,0,0,0,.25-.34,8.13,8.13,0,0,0,.72,2.58c.55,1,1,1.57,1,1.71a2.2,2.2,0,0,0,.71,1c0,.56.45.71.76,1s.3.52.82,1.4c.31.53.87,1.95,3.22.54l.32-.18c.44.94.8,2,.58,2.38-.48.91-1.89,2.95-3.5,2.92s-.71,1.13-.73,2.51-2.86,5.66-4.6,7.16c-2.05,1.78-3.11,4.59-.58,9.48,1.82,3.51.31,10.57-.41,11.93s-4.42,3.59-4.42,3.59,2.07-2.68,1.18-4.08a6.87,6.87,0,0,0-3.91,2.43s-2.17.78-2-1a2.47,2.47,0,0,0-2.11-2.36c-1.81-.1-1.3.69-2.68.66s-3.46,1.09-2.34,2.48c0,0-1.23.05-2.13-2.4a2.59,2.59,0,0,0-.31,2.29,2.44,2.44,0,0,0-2,.3c-.76.65-.57,1.6-1.11,1.92s-1.28-.42-2.36,0a2.34,2.34,0,0,0-1.26,2.47c-1,.52-1.44,1.32-.91,2.07a1.33,1.33,0,0,1-.31,1.94c-.54.26-1.4-.36-2.29.3,0,0,1,1.7,1.91,2,0,0-1.36.72-1,1.53a3,3,0,0,1,.24,1.82,1.23,1.23,0,0,0,.71,1.43c.6.21-2.1.77-2.67,2.64a3.92,3.92,0,0,0,3.83.34s-.16,1.62.91,1.7,1.07.16,1.34.5-.43,1.27,0,1.95.47,3.64-1.59,5.83-2.92,4.79-1.74,6.63-.53,6.65-2.36,7.63-4.12,4.16-3.14,5.79-.29,4.44-3.13,5.6-7.19,6.12-8.61,6.7.52,4.25,1.52,4.88-2.06,2.18-1.47,3,3.19,2.48,2.76,3.69-9.46,20-11.13,23-4.79,7.78-5.62,9S520.16,383.6,521.37,383.62Z" transform="translate(-318.5 -142)"/><text class="cls-2" transform="translate(36.61 251.64) scale(0.88 1)">P</text></svg>